<svg width="18.193em" height="1.4762em" style="vertical-align:-0.000000em" version="1.1" viewBox="0 -17.582 216.69 17.582" xmlns="http://www.w3.org/2000/svg"><g id="kPB_a" transform="scale(1.6)"><g transform="scale(1 -1)"><path d="m7.5984 9.552c0.08937 0.35844 0.10937 0.45781 0.83656 0.45781 0.25875 0 0.33844 0 0.33844 0.19938 0 0.10938-0.10969 0.10938-0.13938 0.10938-0.27875 0-0.99594-0.02969-1.2747-0.02969-0.28876 0-0.99594 0.02969-1.2847 0.02969-0.07969 0-0.18907 0-0.18907-0.19907 0-0.10969 0.08938-0.10969 0.27875-0.10969 0.02 0 0.20907 0 0.37844-0.01968 0.17907-0.02 0.26875-0.03 0.26875-0.15938 0-0.04-0.01-0.05969-0.03969-0.18937l-0.59749-2.4297h-3.0375l0.58751 2.3403c0.08968 0.35844 0.11968 0.45781 0.83656 0.45781 0.25906 0 0.33875 0 0.33875 0.19938 0 0.10938-0.10969 0.10938-0.13938 0.10938-0.27906 0-0.99594-0.02969-1.2747-0.02969-0.28907 0-0.99594 0.02969-1.2847 0.02969-0.07969 0-0.18938 0-0.18938-0.19907 0-0.10969 0.08969-0.10969 0.27875-0.10969 0.02 0 0.20938 0 0.37844-0.01968 0.17937-0.02 0.26906-0.03 0.26906-0.15938 0-0.04-0.01-0.06969-0.04-0.18937l-1.3344-5.3475c-0.09969-0.38844-0.11938-0.46812-0.90625-0.46812-0.17906 0-0.26875 0-0.26875-0.19906 0-0.10969 0.11938-0.10969 0.13937-0.10969 0.27875 0 0.98594 0.029999 1.2647 0.029999 0.20906 0 0.42812-0.009999 0.6375-0.009999 0.21906 0 0.43812-0.02 0.64719-0.02 0.07968 0 0.19906 0 0.19906 0.19906 0 0.10969-0.08937 0.10969-0.27875 0.10969-0.36844 0-0.64719 0-0.64719 0.17906 0 0.06 0.01969 0.10969 0.02969 0.16938l0.67719 2.7288h3.0375c-0.41844-1.6531-0.6475-2.5991-0.68719-2.7484-0.09969-0.31875-0.28875-0.32875-0.90625-0.32875-0.14938 0-0.23906 0-0.23906-0.19906 0-0.10969 0.11969-0.10969 0.13937-0.10969 0.27906 0 0.98594 0.029999 1.2647 0.029999 0.20938 0 0.42844-0.009999 0.6375-0.009999 0.21906 0 0.43813-0.02 0.64719-0.02 0.07968 0 0.19937 0 0.19937 0.19906 0 0.10969-0.08968 0.10969-0.27906 0.10969-0.36844 0-0.64719 0-0.64719 0.17906 0 0.06 0.02 0.10969 0.03 0.16938l1.3444 5.3778z"/><path d="m12.387 1.127c0 0.02969 0 0.04969-0.16938 0.21907-1.2447 1.2547-1.5634 3.1369-1.5634 4.6606 0 1.7328 0.37844 3.4656 1.6034 4.7103 0.12938 0.11938 0.12938 0.13938 0.12938 0.16938 0 0.06968-0.03969 0.09937-0.09969 0.09937-0.09938 0-0.99563-0.67719-1.5834-1.9419-0.50781-1.0953-0.62719-2.2006-0.62719-3.0372 0-0.77687 0.10938-1.9819 0.65719-3.1072 0.5975-1.2247 1.4541-1.8722 1.5534-1.8722 0.06 0 0.09969 0.03001 0.09969 0.09969z"/><path d="m17.795 7.6098-0.83657 1.9819c-0.03 0.07969-0.05 0.11938-0.05 0.12937 0 0.05969 0.16938 0.24907 0.58782 0.28875 0.09937 0.01001 0.19906 0.02 0.19906 0.18938 0 0.11938-0.11938 0.11938-0.14938 0.11938-0.40843 0-0.83656-0.02969-1.2547-0.02969-0.24907 0-0.86657 0.02969-1.1153 0.02969-0.06 0-0.17937 0-0.17937-0.19907 0-0.10969 0.09969-0.10969 0.22906-0.10969 0.5975 0 0.65719-0.09937 0.74688-0.31843l1.175-2.7784-2.1012-2.2606-0.12938-0.10969c-0.48812-0.52782-0.95594-0.68719-1.4641-0.71688-0.12938-0.009999-0.21906-0.009999-0.21906-0.19906 0-0.01 0-0.10969 0.12969-0.10969 0.29875 0 0.62719 0.029999 0.93594 0.029999 0.36844 0 0.75688-0.029999 1.1153-0.029999 0.06 0 0.17938 0 0.17938 0.19906 0 0.099688-0.09969 0.10969-0.11938 0.10969-0.08968 0.01-0.39843 0.029688-0.39843 0.30875 0 0.15937 0.14937 0.31875 0.26875 0.44813l1.0159 1.0753 0.89625 0.97594 1.0056-2.38c0.04-0.10938 0.05-0.11938 0.05-0.13938 0-0.079687-0.18938-0.24906-0.57781-0.28875-0.10938-0.009999-0.19907-0.019999-0.19907-0.18938 0-0.11937 0.10969-0.11937 0.14938-0.11937 0.27875 0 0.97594 0.029999 1.2547 0.029999 0.24906 0 0.85656-0.029999 1.1056-0.029999 0.06969 0 0.18906 0 0.18906 0.18906 0 0.11969-0.09968 0.11969-0.17937 0.11969-0.66719 0.01-0.68688 0.039688-0.85625 0.43813-0.38844 0.92625-1.0556 2.4797-1.2847 3.0772 0.67719 0.69719 1.7228 1.8822 2.0416 2.1609 0.28875 0.23906 0.66719 0.47813 1.2647 0.50781 0.12938 0.01001 0.21906 0.01001 0.21906 0.19938 0 0.01 0 0.10938-0.12937 0.10938-0.29875 0-0.6275-0.02969-0.93625-0.02969-0.36844 0-0.74688 0.02969-1.1053 0.02969-0.05969 0-0.18938 0-0.18938-0.19907 0-0.06969 0.05-0.09968 0.11969-0.10969 0.08969-0.00968 0.39844-0.02968 0.39844-0.30843 0-0.13969-0.10969-0.26906-0.18938-0.35875l-1.6131-1.7328z"/><path d="m24.879 6.0067c0 0.77656-0.10968 1.9816-0.6575 3.1069-0.59749 1.225-1.4537 1.8722-1.5534 1.8722-0.059687 0-0.099687-0.03968-0.099687-0.09937 0-0.03 0-0.05 0.18938-0.22906 0.97594-0.98594 1.5434-2.5694 1.5434-4.6506 0-1.7028-0.36844-3.4556-1.6031-4.7103-0.12969-0.11969-0.12969-0.13969-0.12969-0.16938 0-0.05968 0.04-0.09969 0.099687-0.09969 0.099688 0 0.99594 0.67719 1.5834 1.9419 0.50781 1.0956 0.62749 2.2009 0.62749 3.0375z"/><path d="m35.483 6.7735c0.1494 0 0.3385 0 0.3385 0.19906s-0.1891 0.19906-0.3285 0.19906h-5.9653c-0.13937 0-0.32843 0-0.32843-0.19906s0.18906-0.19906 0.33843-0.19906h5.9453zm0.01-1.9322c0.1394 0 0.3285 0 0.3285 0.19937 0 0.19906-0.1891 0.19906-0.3385 0.19906h-5.9453c-0.14937 0-0.33843 0-0.33843-0.19906 0-0.19937 0.18906-0.19937 0.32843-0.19937h5.9653z"/><path d="m45.722 5.8073c0.16938 0 0.34875 0 0.34875 0.19937 0 0.19906-0.17937 0.19906-0.34875 0.19906h-5.3875c-0.16906 0-0.34843 0-0.34843-0.19906 0-0.19937 0.17937-0.19937 0.34843-0.19937h5.3875z"/><path d="m52.76 5.6712-3.5353-4.3719c-0.079688-0.09938-0.089688-0.11938-0.089688-0.15938 0-0.10937 0.089688-0.10937 0.26906-0.10937h8.2556l0.85625 2.4797h-0.24875c-0.24907-0.74688-0.91625-1.3544-1.7628-1.6431-0.15937-0.05-0.84656-0.28906-2.3103-0.28906h-4.2325l3.4556 4.2725c0.06968 0.08937 0.08968 0.11937 0.08968 0.15906 0 0.04-0.01 0.05-0.06968 0.13969l-3.2366 4.4412h3.9438c1.1353 0 3.4256-0.069687 4.1228-1.9319h0.24875l-0.85625 2.3303h-8.2556c-0.26906 0-0.27875-0.01-0.27875-0.31875l3.6347-4.9991z"/><path d="m60.82 1.267c-0.06969-0.23719-0.3-0.61344-0.65532-0.61344-0.02093 0-0.23 0-0.37656 0.0975 0.28594 0.090625 0.30688 0.34156 0.30688 0.38344 0 0.15344-0.11875 0.25781-0.27907 0.25781-0.195 0-0.39719-0.16719-0.39719-0.42531 0-0.34844 0.39031-0.50875 0.73187-0.50875 0.32063 0 0.60656 0.20219 0.78094 0.495 0.16719-0.36969 0.55062-0.495 0.82937-0.495 0.80188 0 1.2272 0.87125 1.2272 1.0666 0 0.090628-0.09062 0.090628-0.11156 0.090628-0.09781 0-0.10469-0.03469-0.1325-0.11844-0.14656-0.48094-0.56469-0.84344-0.955-0.84344-0.27906 0-0.42531 0.18812-0.42531 0.45312 0 0.18125 0.16718 0.81562 0.3625 1.5894 0.13937 0.53688 0.45312 0.71094 0.68312 0.71094 0.01406 0 0.23 0 0.37656-0.0975-0.22312-0.06281-0.30687-0.25781-0.30687-0.38344 0-0.15344 0.11844-0.25781 0.27875-0.25781s0.39062 0.13219 0.39062 0.425c0 0.39062-0.44625 0.50906-0.725 0.50906-0.34875 0-0.6275-0.23-0.78093-0.495-0.12532 0.28594-0.44625 0.495-0.83657 0.495-0.78062 0-1.2269-0.8575-1.2269-1.0666 0-0.09063 0.0975-0.09063 0.11844-0.09063 0.090625 0 0.0975 0.02782 0.1325 0.11844 0.17438 0.54375 0.61343 0.84344 0.955 0.84344 0.23 0 0.41843-0.12531 0.41843-0.46 0-0.13938-0.08375-0.48813-0.14656-0.725l-0.23687-0.955z"/><path d="m67.931 2.1036c0.11157 0 0.27907 0 0.27907 0.16719 0 0.17437-0.16032 0.17437-0.27907 0.17437h-3.2275c0.10438 1.0106 0.94813 1.7638 2.0356 1.7638h1.1919c0.11157 0 0.27907 0 0.27907 0.16719 0 0.17438-0.16032 0.17438-0.27907 0.17438h-1.22c-1.2966 0-2.3562-1.0178-2.3562-2.2728 0-1.2825 1.0737-2.2794 2.3562-2.2794h1.22c0.11157 0 0.27907 0 0.27907 0.16719 0 0.17438-0.16032 0.17438-0.27907 0.17438h-1.1919c-1.0875 0-1.9312 0.75281-2.0356 1.7637h3.2275zm4.7899 1.8891c-0.11875 0.84344-0.18125 1.2966-0.77375 1.2966-0.795 0-1.1922-0.50875-1.1922-0.68313 0-0.05562 0.06281-0.05562 0.09062-0.05562 0.11844 0 0.39719 0.12531 0.52969 0.31375 0.53 0 0.57188-0.27188 0.71813-1.2969l0.08375-0.59937c-0.71125-0.38344-1.1644-0.6275-1.5478-0.8575-0.96187-0.5925-1.1709-0.87157-1.1709-1.1644 0-0.28562 0.195-0.41812 0.38343-0.41812 0.23688 0 0.57844 0.24406 0.57844 0.36938 0 0.04875-0.04875 0.055937-0.06281 0.055937-0.06969 0.006875-0.25094 0.034688-0.25094 0.30656 0 0.16031 0 0.25812 0.90625 0.78781 0.21625 0.12563 0.36969 0.20907 1.1991 0.65532 0.04188-0.265 0.17438-1.2897 0.21625-1.485 0.11157-0.52281 0.3275-0.69 0.68313-0.69 0.79471 0 1.1922 0.50875 1.1922 0.68312 0 0.055937-0.0628 0.055937-0.0906 0.055937-0.1116 0-0.3975-0.11156-0.53-0.31375-0.23692 0-0.49505 0-0.62036 0.63437-0.035 0.18125-0.02094 0.16719-0.20906 1.4569 0.47406 0.24406 0.94092 0.50906 1.4009 0.79469 0.746 0.47406 0.9553 0.76 0.9553 1.0319 0 0.28594-0.1953 0.41813-0.3834 0.41813-0.2372 0-0.5788-0.24375-0.5788-0.36938 0-0.04875 0.0488-0.05562 0.0629-0.05562 0.0696-0.00719 0.2509-0.035 0.2509-0.30688 0-0.15344 0-0.23687-0.6694-0.64125-0.31342-0.19531-0.63436-0.36969-1.0734-0.60656l-0.0975 0.68312z"/><path d="m78.309 2.302c-0.079687-0.33844-0.099687-0.40812-0.53781-0.40812-0.11938 0-0.22906 0-0.22906-0.18938 0-0.07969 0.050001-0.11937 0.12969-0.11937 0.26875 0 0.5575 0.02968 0.83625 0.02968 0.32875 0 0.66718-0.02968 0.98594-0.02968 0.05 0 0.17938 0 0.17938 0.19906 0 0.10969-0.09969 0.10969-0.23906 0.10969-0.49782 0-0.49782 0.06968-0.49782 0.15937 0 0.11938 0.41813 1.7425 0.48782 1.9916 0.12937-0.28875 0.40843-0.6375 0.91625-0.6375 1.1553 0 2.4 1.4541 2.4 2.9181 0 0.93594-0.5675 1.5931-1.3244 1.5931-0.49813 0-0.97594-0.35844-1.3047-0.74688-0.09969 0.53781-0.52781 0.74688-0.89625 0.74688-0.45812 0-0.64718-0.38844-0.73687-0.56751-0.17938-0.33874-0.30875-0.93625-0.30875-0.96593 0-0.09969 0.099688-0.09969 0.11938-0.09969 0.099687 0 0.10969 0.01 0.16937 0.22906 0.16938 0.70719 0.36844 1.185 0.72687 1.185 0.16938 0 0.30875-0.07968 0.30875-0.45812 0-0.22906-0.02969-0.33844-0.06968-0.50781l-1.1153-4.4316zm1.7528 4.3222c0.06968 0.26875 0.33843 0.5475 0.51781 0.69687 0.34843 0.30875 0.63719 0.37844 0.80656 0.37844 0.39844 0 0.63719-0.34844 0.63719-0.93593 0-0.58751-0.32844-1.7328-0.50782-2.1112-0.33843-0.69719-0.81656-1.0256-1.185-1.0256-0.65719 0-0.78657 0.82656-0.78657 0.88625 0 0.01969 0 0.03969 0.02969 0.15938l0.48813 1.9519z"/><path d="m86.169 1.127c0 0.02969 0 0.04969-0.16937 0.21907-1.2447 1.2547-1.5634 3.1369-1.5634 4.6606 0 1.7328 0.37844 3.4656 1.6034 4.7103 0.12937 0.11938 0.12937 0.13938 0.12937 0.16938 0 0.06968-0.03969 0.09937-0.09969 0.09937-0.09937 0-0.99562-0.67719-1.5834-1.9419-0.50782-1.0953-0.62719-2.2006-0.62719-3.0372 0-0.77687 0.10937-1.9819 0.65719-3.1072 0.5975-1.2247 1.4541-1.8722 1.5534-1.8722 0.06 0 0.09969 0.03001 0.09969 0.09969z"/><path d="m90.074 6.5245c0.05969 0.25875 0.28875 1.175 0.98594 1.175 0.04969 0 0.28875 0 0.49781-0.12937-0.27875-0.04969-0.47812-0.29875-0.47812-0.53781 0-0.15938 0.10968-0.34844 0.37843-0.34844 0.21907 0 0.53782 0.17906 0.53782 0.5775 0 0.51781-0.5875 0.65719-0.92625 0.65719-0.5775 0-0.92594-0.52782-1.0456-0.75688-0.24875 0.6575-0.78656 0.75688-1.0753 0.75688-1.0359 0-1.6034-1.2847-1.6034-1.5334 0-0.09969 0.099687-0.09969 0.11938-0.09969 0.079687 0 0.10969 0.02 0.12969 0.10969 0.33844 1.0556 0.99563 1.3044 1.3344 1.3044 0.18906 0 0.53781-0.08969 0.53781-0.66718 0-0.30875-0.16937-0.97594-0.53781-2.37-0.15938-0.6175-0.50781-1.0356-0.94594-1.0356-0.06 0-0.28906 0-0.49812 0.12938 0.24906 0.049688 0.46812 0.25875 0.46812 0.53781 0 0.26875-0.21906 0.34844-0.36844 0.34844-0.29875 0-0.54781-0.25907-0.54781-0.5775 0-0.45812 0.49812-0.6575 0.93625-0.6575 0.65719 0 1.0156 0.69719 1.0456 0.75688 0.11937-0.36844 0.47781-0.75688 1.0753-0.75688 1.0259 0 1.5934 1.2847 1.5934 1.5337 0 0.09969-0.08969 0.09969-0.11938 0.09969-0.08969 0-0.10969-0.04-0.12969-0.10969-0.32843-1.0656-1.0056-1.3044-1.3244-1.3044-0.38844 0-0.54781 0.31844-0.54781 0.65719 0 0.21906 0.06 0.43812 0.16937 0.87625l0.33875 1.3644z"/><path d="m95.319 6.0067c0 0.77656-0.10968 1.9816-0.6575 3.1069-0.5975 1.225-1.4537 1.8722-1.5534 1.8722-0.059688 0-0.099688-0.03968-0.099688-0.09937 0-0.03 0-0.05 0.18938-0.22906 0.97594-0.98594 1.5434-2.5694 1.5434-4.6506 0-1.7028-0.36844-3.4556-1.6031-4.7103-0.12969-0.11969-0.12969-0.13969-0.12969-0.16938 0-0.05968 0.04-0.09969 0.099688-0.09969 0.099687 0 0.99593 0.67719 1.5834 1.9419 0.50782 1.0956 0.6275 2.2009 0.6275 3.0375z"/><path d="m99.738 10.428-1.4338-0.10968v-0.30876c0.69688 0 0.77656-0.06968 0.77656-0.55749v-5.1784c0-0.44813-0.10937-0.44813-0.77656-0.44813v-0.30875c0.32844 0.009999 0.85625 0.029999 1.1053 0.029999 0.24907 0 0.73688-0.02 1.1053-0.029999v0.30875c-0.66719 0-0.77688 0-0.77688 0.44813v6.1544zm5.6954-4.78c0 1.2747-0.9956 2.3303-2.2006 2.3303-1.245 0-2.2109-1.0856-2.2109-2.3303 0-1.2847 1.0356-2.2409 2.2009-2.2409 1.205 0 2.2106 0.97594 2.2106 2.2409zm-2.2006-1.9919c-0.4281 0-0.86654 0.20906-1.1353 0.66719-0.24907 0.43812-0.24907 1.0456-0.24907 1.4044 0 0.38813 0 0.92594 0.23906 1.3641 0.26876 0.45813 0.7369 0.66719 1.1353 0.66719 0.4381 0 0.8663-0.21906 1.1253-0.64719 0.2588-0.42812 0.2588-1.0059 0.2588-1.3841 0-0.35875 0-0.89656-0.2191-1.3347-0.219-0.44812-0.6572-0.73688-1.155-0.73688zm4.7025 1.5734c-0.8665 0-0.8665 0.99593-0.8665 1.225 0 0.26876 0.01 0.58751 0.1593 0.83657 0.0797 0.11937 0.3088 0.39812 0.7072 0.39812 0.8663 0 0.8663-0.99562 0.8663-1.2247 0-0.26906-0.01-0.58749-0.1594-0.83656-0.0797-0.11969-0.3088-0.39843-0.7069-0.39843zm-1.1553-0.38844c0 0.04 0 0.26906 0.1694 0.46812 0.3881-0.27875 0.7965-0.30875 0.9859-0.30875 0.926 0 1.6131 0.68719 1.6131 1.4541 0 0.36844-0.1593 0.73688-0.4084 0.96594 0.3588 0.33844 0.7172 0.38844 0.8966 0.38844 0.0197 0 0.0697 0 0.0993-0.01-0.1093-0.04-0.1593-0.14938-0.1593-0.26906 0-0.16907 0.1297-0.28875 0.2887-0.28875 0.0997 0 0.2891 0.06968 0.2891 0.29875 0 0.16937-0.1197 0.48812-0.5081 0.48812-0.1991 0-0.6372-0.05968-1.0557-0.46812-0.4181 0.32875-0.8362 0.35844-1.0553 0.35844-0.9262 0-1.6134-0.68719-1.6134-1.4538 0-0.43812 0.219-0.81656 0.4681-1.0259-0.1294-0.14938-0.3087-0.47781-0.3087-0.82656 0-0.30844 0.1293-0.68688 0.4381-0.88626-0.5975-0.16938-0.9163-0.5975-0.9163-0.99594 0-0.71688 0.986-1.2647 2.201-1.2647 1.175 0 2.2106 0.50812 2.2106 1.2847 0 0.34875-0.1394 0.85656-0.6472 1.1353-0.5278 0.27875-1.1053 0.27875-1.7128 0.27875-0.2491 0-0.6772 0-0.7469 0.01-0.3187 0.04-0.5278 0.34875-0.5278 0.66719zm1.4341-3.1469c-1.006 0-1.6932 0.50813-1.6932 1.0356 0 0.45812 0.3785 0.82656 0.8166 0.85656h0.5878c0.8563 0 1.9716 0 1.9716-0.85656 0-0.5375-0.7069-1.0356-1.6828-1.0356z"/><path d="m114.37 2.3498h-0.23719c-0.02093-0.15344-0.09062-0.56469-0.18125-0.63437-0.05562-0.041875-0.5925-0.041875-0.69-0.041875h-1.2828c0.73188 0.64844 0.97594 0.84344 1.3944 1.1712 0.51562 0.41125 0.99687 0.84344 0.99687 1.5056 0 0.84375-0.73906 1.3597-1.6316 1.3597-0.86438 0-1.45-0.60656-1.45-1.2481 0-0.35531 0.3-0.39031 0.36969-0.39031 0.16719 0 0.36938 0.11843 0.36938 0.36937 0 0.12563-0.04875 0.36969-0.41125 0.36969 0.21594 0.495 0.69 0.64812 1.0178 0.64812 0.69719 0 1.0597-0.54375 1.0597-1.1084 0-0.60625-0.43219-1.0875-0.65531-1.3384l-1.6803-1.6591c-0.069688-0.062813-0.069688-0.076563-0.069688-0.27188h2.8722l0.20938 1.2687z"/><path d="m117.42 2.302c-0.079687-0.33844-0.099687-0.40812-0.53781-0.40812-0.11938 0-0.22906 0-0.22906-0.18938 0-0.07969 0.05-0.11937 0.12969-0.11937 0.26875 0 0.5575 0.02968 0.83625 0.02968 0.32875 0 0.66719-0.02968 0.98594-0.02968 0.05 0 0.17937 0 0.17937 0.19906 0 0.10969-0.09968 0.10969-0.23906 0.10969-0.49781 0-0.49781 0.06968-0.49781 0.15937 0 0.11938 0.41812 1.7425 0.48781 1.9916 0.12938-0.28875 0.40844-0.6375 0.91625-0.6375 1.1553 0 2.4 1.4541 2.4 2.9181 0 0.93594-0.5675 1.5931-1.3244 1.5931-0.49813 0-0.97594-0.35844-1.3047-0.74688-0.09969 0.53781-0.52781 0.74688-0.89625 0.74688-0.45813 0-0.64719-0.38844-0.73688-0.56751-0.17938-0.33874-0.30875-0.93625-0.30875-0.96593 0-0.09969 0.099688-0.09969 0.11938-0.09969 0.099688 0 0.10969 0.01 0.16938 0.22906 0.16938 0.70719 0.36844 1.185 0.72688 1.185 0.16937 0 0.30875-0.07968 0.30875-0.45812 0-0.22906-0.02969-0.33844-0.06969-0.50781l-1.1153-4.4316zm1.7528 4.3222c0.06969 0.26875 0.33844 0.5475 0.51781 0.69687 0.34844 0.30875 0.63719 0.37844 0.80657 0.37844 0.39843 0 0.63718-0.34844 0.63718-0.93593 0-0.58751-0.32843-1.7328-0.50781-2.1112-0.33844-0.69719-0.81656-1.0256-1.185-1.0256-0.65719 0-0.78656 0.82656-0.78656 0.88625 0 0.01969 0 0.03969 0.02969 0.15938l0.48812 1.9519z"/><path d="m125.28 1.127c0 0.02969 0 0.04969-0.16938 0.21907-1.2447 1.2547-1.5634 3.1369-1.5634 4.6606 0 1.7328 0.37844 3.4656 1.6034 4.7103 0.12938 0.11938 0.12938 0.13938 0.12938 0.16938 0 0.06968-0.03969 0.09937-0.09969 0.09937-0.09938 0-0.99563-0.67719-1.5834-1.9419-0.50781-1.0953-0.62719-2.2006-0.62719-3.0372 0-0.77687 0.10938-1.9819 0.65719-3.1072 0.5975-1.2247 1.4541-1.8722 1.5534-1.8722 0.06 0 0.09969 0.03001 0.09969 0.09969z"/><path d="m129.19 6.5245c0.05969 0.25875 0.28875 1.175 0.98593 1.175 0.04969 0 0.28875 0 0.49782-0.12937-0.27875-0.04969-0.47813-0.29875-0.47813-0.53781 0-0.15938 0.10969-0.34844 0.37844-0.34844 0.21906 0 0.53781 0.17906 0.53781 0.5775 0 0.51781-0.5875 0.65719-0.92625 0.65719-0.5775 0-0.92593-0.52782-1.0456-0.75688-0.24875 0.6575-0.78656 0.75688-1.0753 0.75688-1.0359 0-1.6034-1.2847-1.6034-1.5334 0-0.09969 0.099688-0.09969 0.11938-0.09969 0.079688 0 0.10969 0.02 0.12969 0.10969 0.33844 1.0556 0.99562 1.3044 1.3344 1.3044 0.18906 0 0.53781-0.08969 0.53781-0.66718 0-0.30875-0.16938-0.97594-0.53781-2.37-0.15938-0.6175-0.50782-1.0356-0.94594-1.0356-0.06 0-0.28906 0-0.49813 0.12938 0.24906 0.049688 0.46813 0.25875 0.46813 0.53781 0 0.26875-0.21906 0.34844-0.36844 0.34844-0.29875 0-0.54781-0.25907-0.54781-0.5775 0-0.45812 0.49812-0.6575 0.93625-0.6575 0.65718 0 1.0156 0.69719 1.0456 0.75688 0.11938-0.36844 0.47781-0.75688 1.0753-0.75688 1.0259 0 1.5934 1.2847 1.5934 1.5337 0 0.09969-0.08968 0.09969-0.11937 0.09969-0.08969 0-0.10969-0.04-0.12969-0.10969-0.32844-1.0656-1.0056-1.3044-1.3244-1.3044-0.38844 0-0.54782 0.31844-0.54782 0.65719 0 0.21906 0.06 0.43812 0.16938 0.87625l0.33875 1.3644z"/><path d="m134.43 6.0067c0 0.77656-0.10969 1.9816-0.6575 3.1069-0.5975 1.225-1.4538 1.8722-1.5534 1.8722-0.059687 0-0.099687-0.03968-0.099687-0.09937 0-0.03 0-0.05 0.18938-0.22906 0.97594-0.98594 1.5434-2.5694 1.5434-4.6506 0-1.7028-0.36844-3.4556-1.6031-4.7103-0.12969-0.11969-0.12969-0.13969-0.12969-0.16938 0-0.05968 0.04-0.09969 0.099687-0.09969 0.099688 0 0.99594 0.67719 1.5834 1.9419 0.50781 1.0956 0.6275 2.2009 0.6275 3.0375z"/></g></g></svg>
